# xmcd
#
# Track frame offsets: 
#        150
#        12449
#        26164
#        45940
#        62244
#        78996
#        93414
#        101936
#        113174
#        113654
#        127276
#        138075
#
# Disc length: 2030 seconds
#
# Revision: 0
# Processed by: cddbd v1.5.2PL0 Copyright (c) Steve Scherf et al.
# Submitted via: ExactAudioCopyFreeDBPlugin 1.0
#
DISCID=9f07ec0c
DTITLE=Rob Boer And Friends - Bright Morning Star Blues
DYEAR=2002
DGENRE=Gospel
TTITLE0=Aint't No Shame
TTITLE1=The Lost Son Blues
TTITLE2=All Sin Been Gone Blues
TTITLE3=Feel Happy Blues
TTITLE4=When The Late Rain Falls
TTITLE5=Great Lord Jesus I Trust In You
TTITLE6=Kick The Devil In His Face
TTITLE7=Be Near Me
TTITLE8=I Go Mad
TTITLE9=Circus Of The Sourplumbs
TTITLE10=Goodbye Sad Night
TTITLE11=T-Bone Farmer Blues
EXTD=
EXTT0=
EXTT1=
EXTT2=
EXTT3=
EXTT4=
EXTT5=
EXTT6=
EXTT7=
EXTT8=
EXTT9=
EXTT10=
EXTT11=
PLAYORDER=
